<svg width="320" height="59" viewBox="0 0 320 59" fill="none" xmlns="http://www.w3.org/2000/svg">
<mask id="mask0_1172_10171" style="mask-type:alpha" maskUnits="userSpaceOnUse" x="0" y="0" width="52" height="52">
<rect width="51.7172" height="51.7172" fill="url(#paint0_linear_1172_10171)" style=""/>
<rect width="51.7172" height="51.7172" fill="url(#paint1_linear_1172_10171)" style=""/>
<rect width="51.7172" height="51.7172" fill="url(#paint2_linear_1172_10171)" style=""/>
</mask>
<g mask="url(#mask0_1172_10171)">
<path d="M14.5289 49.1014C9.73002 46.7603 5.83195 43.0622 3.25279 38.407C0.733224 33.8583 -0.355326 28.7273 0.101749 23.568C0.205233 22.4119 1.22378 21.5583 2.38043 21.6604C3.53491 21.7632 4.38985 22.7827 4.28782 23.9396C3.90485 28.261 4.81823 32.5603 6.9294 36.3721C8.74697 39.6541 11.3503 42.3682 14.5278 44.3139L24.4109 24.0459C20.5425 22.7575 17.3203 23.3184 17.0303 23.3747C16.9878 23.3845 16.9467 23.3915 16.9048 23.3998C15.9416 23.5611 15.0099 23.0346 14.6348 22.1593C14.1172 21.1929 12.5631 18.8307 10.6822 17.9131C8.80124 16.9955 5.90243 17.2915 4.96923 17.4944C4.18244 17.6662 3.36359 17.3728 2.86661 16.7402C2.36962 16.1075 2.27437 15.2446 2.62713 14.5212C8.87269 1.70553 24.383 -3.63579 37.1965 2.61521C50.01 8.86622 55.3459 24.3646 49.1111 37.1766C49.1047 37.1896 49.0984 37.2027 49.0913 37.2172C42.8347 50.0185 27.3366 55.3496 14.5289 49.1014ZM28.1858 25.8875L18.3035 46.154C28.2777 49.8798 39.6276 45.7404 44.8177 36.3318C44.0882 35.2027 42.8081 33.5838 41.3267 32.861C39.4123 31.9271 36.6076 32.233 35.644 32.4355C35.4854 32.4732 35.3273 32.4914 35.1683 32.493C34.8836 32.4943 34.5946 32.4379 34.3174 32.317C34.0299 32.1912 33.77 32.0015 33.5602 31.757C33.4403 31.6158 33.3412 31.4614 33.2615 31.2966C33.1996 31.1729 31.6684 28.1996 28.1858 25.8875ZM12.521 14.1347C14.1303 14.9198 15.4421 16.1675 16.4215 17.3448C19.4501 12.7118 23.5604 9.2125 26.7354 6.95629C27.9153 6.11845 29.1369 5.33513 30.3133 4.65925C22.0491 2.92401 13.3879 6.19922 8.3659 13.0949C9.69517 13.1859 11.1601 13.4707 12.521 14.1347ZM39.8247 9.30113C40.0165 10.6445 40.1521 12.0882 40.2178 13.5354C40.3949 17.4161 40.1705 22.7914 38.398 28.0192C39.8764 28.0589 41.5954 28.3203 43.1684 29.0877C44.573 29.7728 45.7504 30.8094 46.677 31.8441C49.0429 23.6257 46.2935 14.7587 39.824 9.30258L39.8247 9.30113ZM28.2003 21.0644C31.1067 22.4823 33.2075 24.3685 34.6314 25.9947C36.9478 18.4679 35.938 10.0449 35.0948 6.92536C32.118 8.18134 24.859 12.5704 20.3567 19.0308C22.5167 19.1513 25.2954 19.6473 28.2003 21.0644Z" fill="white" style="fill:white;fill-opacity:1;"/>
</g>
<path d="M184.997 3.23242H192.595V45.8079H184.997V3.23242Z" fill="white" style="fill:white;fill-opacity:1;"/>
<path fill-rule="evenodd" clip-rule="evenodd" d="M244.638 24.2683C243.73 26.2065 243.281 28.3857 243.281 30.7948H243.27C243.27 33.1053 243.697 35.2188 244.562 37.1241C245.427 39.0295 246.62 40.6721 248.163 42.0409C249.707 43.4097 251.546 44.4719 253.692 45.2275C255.837 45.9831 258.202 46.3554 260.764 46.3554C261.859 46.3554 262.975 46.2678 264.092 46.0816C265.208 45.8955 266.292 45.6546 267.332 45.3479C268.372 45.0413 269.347 44.6909 270.255 44.2748C271.164 43.8587 271.952 43.4207 272.62 42.9607V45.8079H280.217V3.23242H272.62V17.7199C271.952 17.3257 271.186 16.9643 270.321 16.6249C269.456 16.2854 268.536 16.0007 267.551 15.7598C266.566 15.5189 265.537 15.3327 264.475 15.1903C263.413 15.048 262.329 14.9823 261.235 14.9823C258.662 14.9823 256.275 15.3546 254.086 16.0992C251.896 16.8439 249.992 17.9061 248.393 19.2858C246.795 20.6656 245.547 22.33 244.638 24.2683ZM251.995 34.2332C251.502 33.1601 251.262 32.0103 251.262 30.7948V30.7729C251.262 29.4807 251.502 28.2762 252.006 27.1592C252.51 26.0423 253.221 25.0786 254.152 24.2573C255.082 23.436 256.232 22.79 257.589 22.3191C258.947 21.8482 260.501 21.6183 262.242 21.6183C263.096 21.6183 263.971 21.684 264.88 21.8154C265.789 21.9468 266.686 22.1439 267.573 22.4177C268.46 22.6914 269.336 23.0418 270.189 23.4689C271.043 23.896 271.864 24.4216 272.631 25.0348V35.5363C272.018 36.1714 271.295 36.7409 270.463 37.2555C269.631 37.7702 268.744 38.2082 267.792 38.5696C266.84 38.931 265.843 39.2047 264.825 39.4018C263.807 39.5989 262.778 39.6975 261.749 39.6975C260.14 39.6975 258.695 39.4675 257.403 38.9967C256.111 38.5258 255.005 37.8797 254.097 37.0694C253.188 36.2591 252.488 35.3064 251.995 34.2332Z" fill="white" style="fill:white;fill-opacity:1;"/>
<path fill-rule="evenodd" clip-rule="evenodd" d="M284.082 24.6735C283.239 26.546 282.823 28.5061 282.823 30.5648C282.823 32.7768 283.272 34.8355 284.137 36.7518C285.001 38.6682 286.304 40.3326 288.034 41.7562C289.763 43.1798 291.909 44.3077 294.471 45.118C297.033 45.9283 300.021 46.3445 303.426 46.3445C304.761 46.3445 306.031 46.2897 307.235 46.1692C308.44 46.0488 309.589 45.8736 310.695 45.6436C311.8 45.4137 312.862 45.118 313.88 44.7676C314.899 44.4172 316.07 44.0011 317.066 43.5411L314.329 37.7483C312.764 38.3178 311.111 38.7886 309.381 39.15C307.651 39.5114 305.911 39.6975 304.17 39.6975C302.43 39.6975 300.831 39.5442 299.397 39.2485C297.963 38.9529 296.693 38.5258 295.598 37.9783C294.504 37.4308 293.584 36.7737 292.862 36.0291C292.139 35.2845 291.614 34.4522 291.285 33.5434H319.923C319.956 33.2696 319.978 32.9739 319.989 32.6345C320 32.2957 320 31.9896 320 31.6945V31.6927C320 29.3603 319.573 27.1811 318.708 25.1443C317.843 23.1076 316.606 21.3445 314.986 19.8334C313.366 18.3222 311.406 17.1395 309.086 16.2745C306.765 15.4094 304.17 14.9823 301.269 14.9823C298.368 14.9823 295.774 15.4094 293.486 16.2635C291.198 17.1176 289.26 18.2565 287.694 19.702C286.129 21.1474 284.925 22.8009 284.082 24.6735ZM310.673 25.2648C311.242 25.9875 311.669 26.765 311.943 27.6082L311.932 27.6301H291.274C291.548 26.8198 291.975 26.0532 292.566 25.3414C293.157 24.6297 293.891 23.9945 294.788 23.447C295.686 22.8995 296.715 22.4615 297.897 22.133C299.08 21.8044 300.393 21.6402 301.827 21.6402C303.185 21.6402 304.422 21.7935 305.55 22.1001C306.677 22.4067 307.673 22.8338 308.527 23.3704C309.381 23.9069 310.104 24.5421 310.673 25.2648Z" fill="white" style="fill:white;fill-opacity:1;"/>
<path d="M236.297 11.3905C235.541 11.3905 234.863 11.281 234.261 11.073C233.659 10.8649 233.133 10.5693 232.706 10.1969C232.279 9.82462 231.951 9.39755 231.721 8.91573C231.491 8.43391 231.371 7.90829 231.371 7.36076C231.371 6.81324 231.491 6.26572 231.721 5.7839C231.951 5.30208 232.279 4.87501 232.706 4.51364C233.133 4.15228 233.648 3.86756 234.261 3.64855C234.874 3.42954 235.552 3.33099 236.297 3.33099C237.041 3.33099 237.753 3.44049 238.366 3.64855C238.979 3.85661 239.493 4.15228 239.92 4.51364C240.347 4.87501 240.676 5.29112 240.906 5.7839C241.136 6.27667 241.256 6.80229 241.256 7.36076C241.256 7.91924 241.136 8.42296 240.906 8.91573C240.676 9.4085 240.347 9.83557 239.92 10.1969C239.493 10.5583 238.979 10.854 238.366 11.073C237.753 11.292 237.074 11.3905 236.297 11.3905Z" fill="white" style="fill:white;fill-opacity:1;"/>
<path d="M232.498 15.5189H240.096V45.8079H232.498V15.5189Z" fill="white" style="fill:white;fill-opacity:1;"/>
<path d="M198.27 36.5244L198.266 36.5219L198.277 36.5109L198.27 36.5244Z" fill="white" style="fill:white;fill-opacity:1;"/>
<path d="M195.419 42.3256L198.27 36.5244C200.327 37.7496 202.581 38.6576 205.042 39.2376C207.505 39.818 210.023 40.1136 212.607 40.1136C214.347 40.1136 215.803 39.9932 216.964 39.7523C218.124 39.5113 219.055 39.2047 219.755 38.8324C220.456 38.4601 220.949 38.033 221.244 37.5512C221.54 37.0694 221.682 36.5876 221.682 36.0838C221.682 35.3611 221.365 34.7479 220.741 34.2332C220.117 33.7185 219.088 33.4667 217.653 33.4667C216.986 33.4667 216.263 33.5105 215.497 33.5981L213.077 33.8718C212.235 33.9704 211.348 34.058 210.439 34.1456C209.531 34.2332 208.6 34.277 207.659 34.277C205.6 34.277 203.86 34.058 202.415 33.609C200.97 33.1601 199.798 32.5578 198.89 31.7913C197.981 31.0247 197.324 30.1049 196.919 29.0536C196.514 28.0024 196.306 26.8635 196.306 25.648C196.306 24.104 196.667 22.6914 197.379 21.3883C198.091 20.0852 199.12 18.9683 200.455 18.0156C201.791 17.0629 203.4 16.3292 205.294 15.7926C207.188 15.256 209.29 14.9932 211.621 14.9932C212.837 14.9932 214.107 15.0699 215.431 15.2122C216.756 15.3546 218.058 15.5517 219.339 15.7926C220.62 16.0335 221.857 16.3073 223.04 16.6249C224.023 16.8889 225.142 17.3422 226.014 17.6952C226.19 17.7668 226.357 17.8342 226.51 17.8951L223.784 23.5456C221.846 22.8228 219.92 22.2534 217.993 21.8373C216.066 21.4212 214.085 21.2131 212.048 21.2131C210.625 21.2131 209.432 21.3226 208.447 21.5307C207.461 21.7387 206.662 22.0234 206.049 22.3738C205.436 22.7243 204.987 23.1294 204.703 23.5784C204.418 24.0274 204.276 24.5092 204.276 25.002C204.276 25.3633 204.352 25.6809 204.495 25.9766C204.637 26.2722 204.878 26.5241 205.217 26.7321C205.557 26.9402 205.984 27.1045 206.531 27.2249C207.078 27.3454 207.735 27.3892 208.523 27.3892C209.246 27.3892 210.001 27.3454 210.811 27.2578C211.033 27.2338 211.256 27.2099 211.481 27.1857L211.482 27.1856C212.08 27.1214 212.693 27.0556 213.329 26.984C214.205 26.8854 215.103 26.7978 216.033 26.7102C216.964 26.6226 217.916 26.5788 218.89 26.5788C220.708 26.5788 222.295 26.7978 223.653 27.2249C225.01 27.652 226.138 28.2543 227.024 29.0208C227.911 29.7873 228.579 30.6962 229.028 31.7365C229.477 32.7768 229.696 33.9157 229.696 35.1531C229.696 36.7409 229.323 38.2192 228.59 39.588C227.856 40.9568 226.762 42.1395 225.306 43.1469C223.85 44.1543 222.043 44.9318 219.876 45.4903C217.708 46.0488 215.212 46.3335 212.366 46.3335C210.625 46.3335 208.939 46.224 207.308 46.0159C205.677 45.8079 204.133 45.5122 202.667 45.1399C201.2 44.7676 199.798 44.3734 198.518 43.8477C196.876 43.1772 196.537 42.9732 196.109 42.7165C195.929 42.6084 195.734 42.491 195.419 42.3256Z" fill="white" style="fill:white;fill-opacity:1;"/>
<path fill-rule="evenodd" clip-rule="evenodd" d="M146.025 24.553C145.138 26.4584 144.7 28.4952 144.7 30.6634C144.7 32.8425 145.138 34.8684 146.025 36.7737C146.911 38.6791 148.17 40.3326 149.802 41.7562C151.433 43.1798 153.403 44.3077 155.724 45.118C158.045 45.9283 160.65 46.3445 163.54 46.3445C166.431 46.3445 169.047 45.9393 171.357 45.118C173.667 44.2967 175.648 43.1798 177.279 41.7562C178.911 40.3326 180.159 38.6791 181.045 36.7737C181.932 34.8684 182.37 32.8425 182.37 30.6634C182.37 28.4842 181.921 26.4584 181.045 24.553C180.169 22.6476 178.911 20.9941 177.279 19.5705C175.648 18.147 173.678 17.0191 171.357 16.2088C169.036 15.3984 166.431 14.9823 163.54 14.9823C160.65 14.9823 158.034 15.3875 155.724 16.2088C153.414 17.03 151.444 18.147 149.802 19.5705C148.159 20.9941 146.911 22.6476 146.025 24.553ZM153.414 34.1128C152.922 33.0287 152.681 31.8789 152.681 30.6634C152.681 29.4479 152.922 28.2981 153.414 27.203C153.907 26.108 154.618 25.1334 155.549 24.3121C156.479 23.4908 157.629 22.8338 158.964 22.341C160.3 21.8482 161.833 21.6073 163.54 21.6073C165.248 21.6073 166.77 21.8592 168.116 22.341C169.463 22.8228 170.591 23.4799 171.532 24.3121C172.474 25.1443 173.174 26.108 173.667 27.203C174.159 28.2981 174.4 29.4479 174.4 30.6634C174.4 31.8789 174.159 33.0287 173.667 34.1128C173.174 35.1969 172.463 36.1605 171.532 36.9818C170.602 37.8031 169.452 38.4601 168.116 38.9529C166.781 39.4457 165.248 39.6866 163.54 39.6866C161.833 39.6866 160.311 39.4347 158.964 38.9529C157.618 38.4711 156.49 37.8031 155.549 36.9818C154.607 36.1605 153.907 35.1969 153.414 34.1128Z" fill="white" style="fill:white;fill-opacity:1;"/>
<path fill-rule="evenodd" clip-rule="evenodd" d="M105.399 30.6634C105.399 28.4952 105.837 26.4584 106.724 24.553C107.611 22.6476 108.859 20.9941 110.501 19.5705C112.143 18.147 114.113 17.03 116.423 16.2088C118.733 15.3875 121.35 14.9823 124.24 14.9823C127.13 14.9823 129.735 15.3984 132.056 16.2088C134.377 17.0191 136.347 18.147 137.979 19.5705C139.61 20.9941 140.869 22.6476 141.755 24.553C142.642 26.4584 143.08 28.4842 143.08 30.6634C143.08 32.8425 142.642 34.8684 141.755 36.7737C140.869 38.6791 139.621 40.3326 137.979 41.7562C136.336 43.1798 134.366 44.2967 132.056 45.118C129.746 45.9393 127.13 46.3445 124.24 46.3445C121.35 46.3445 118.744 45.9283 116.423 45.118C114.102 44.3077 112.132 43.1798 110.501 41.7562C108.87 40.3326 107.611 38.6791 106.724 36.7737C105.837 34.8684 105.399 32.8425 105.399 30.6634ZM113.38 30.6634C113.38 31.8789 113.621 33.0287 114.113 34.1128C114.606 35.1969 115.307 36.1605 116.248 36.9818C117.19 37.8031 118.317 38.4711 119.664 38.9529C121.01 39.4347 122.532 39.6866 124.24 39.6866C125.947 39.6866 127.48 39.4457 128.816 38.9529C130.151 38.4601 131.301 37.8031 132.231 36.9818C133.162 36.1605 133.873 35.1969 134.366 34.1128C134.859 33.0287 135.099 31.8789 135.099 30.6634C135.099 29.4479 134.859 28.2981 134.366 27.203C133.873 26.108 133.173 25.1443 132.231 24.3121C131.29 23.4799 130.162 22.8228 128.816 22.341C127.469 21.8592 125.947 21.6073 124.24 21.6073C122.532 21.6073 120.999 21.8482 119.664 22.341C118.328 22.8338 117.179 23.4908 116.248 24.3121C115.318 25.1334 114.606 26.108 114.113 27.203C113.621 28.2981 113.38 29.4479 113.38 30.6634Z" fill="white" style="fill:white;fill-opacity:1;"/>
<path fill-rule="evenodd" clip-rule="evenodd" d="M66.2626 58.1819H73.8601L73.871 58.171V43.6178C74.5388 44.012 75.3051 44.3734 76.17 44.7128C77.0348 45.0523 77.9544 45.337 78.9396 45.5779C79.9249 45.8188 80.954 46.005 82.0158 46.1473C83.0777 46.2897 84.1615 46.3554 85.2563 46.3554C87.8289 46.3554 90.2154 45.9831 92.4049 45.2385C94.5943 44.4938 96.4992 43.4316 98.0975 42.0519C99.6958 40.6721 100.944 39.0076 101.852 37.0694C102.761 35.1312 103.21 32.8535 103.21 30.5429C103.21 28.2324 102.783 26.1189 101.918 24.2135C101.053 22.3082 99.86 20.6656 98.3164 19.2968C96.7729 17.928 94.9337 16.8658 92.788 16.1102C90.6423 15.3546 88.2777 14.9823 85.716 14.9823C84.5994 14.9823 83.4828 15.0699 82.3771 15.2561C81.2714 15.4422 80.1876 15.6831 79.1476 15.9897C78.1077 16.2964 77.1333 16.6468 76.2247 17.0629C75.3161 17.479 74.5279 17.917 73.8601 18.3769V15.5298H66.2626V58.1819ZM76.3013 37.8578C75.4474 37.4308 74.6264 36.9051 73.8601 36.2919V25.8123C74.4731 25.1772 75.1957 24.6078 76.0277 24.0931C76.8597 23.5784 77.7464 23.1404 78.6988 22.779C79.6512 22.4177 80.6474 22.1439 81.6655 21.9468C82.6836 21.7497 83.7127 21.6511 84.7417 21.6511C86.351 21.6511 87.796 21.8811 89.0878 22.352C90.3796 22.8228 91.4853 23.4689 92.3939 24.2793C93.3025 25.0896 94.0032 26.0423 94.4958 27.1154C94.9884 28.1886 95.2293 29.3384 95.2293 30.5539C95.2293 31.846 94.9884 33.0506 94.4849 34.1675C93.9813 35.2845 93.2697 36.2481 92.3392 37.0694C91.4087 37.8907 90.2592 38.5368 88.9017 39.0076C87.5443 39.4785 85.9897 39.7085 84.2491 39.7085C83.3952 39.7085 82.5194 39.6428 81.6108 39.5114C80.7022 39.38 79.8045 39.1828 78.9178 38.9091C78.031 38.6353 77.1552 38.2849 76.3013 37.8578Z" fill="white" style="fill:white;fill-opacity:1;"/>
<defs>
<linearGradient id="paint0_linear_1172_10171" x1="14.5455" y1="44.2828" x2="12.1212" y2="44.2828" gradientUnits="userSpaceOnUse">
<stop style="stop-color:black;stop-opacity:1;"/>
<stop offset="1" stop-opacity="0" style="stop-color:none;stop-opacity:0;"/>
</linearGradient>
<linearGradient id="paint1_linear_1172_10171" x1="14.7071" y1="25.5353" x2="15.5152" y2="24" gradientUnits="userSpaceOnUse">
<stop stop-opacity="0" style="stop-color:none;stop-opacity:0;"/>
<stop offset="1" style="stop-color:black;stop-opacity:1;"/>
</linearGradient>
<linearGradient id="paint2_linear_1172_10171" x1="2.10101" y1="44.202" x2="2.10101" y2="23.5152" gradientUnits="userSpaceOnUse">
<stop style="stop-color:black;stop-opacity:1;"/>
<stop offset="0.105" stop-opacity="0.9" style="stop-color:black;stop-opacity:0.9;"/>
<stop offset="0.903766" stop-opacity="0.04" style="stop-color:black;stop-opacity:0.04;"/>
<stop offset="1" stop-opacity="0" style="stop-color:none;stop-opacity:0;"/>
</linearGradient>
</defs>
</svg>
